<svg t="1591341505748" class="icon" viewBox="0 0 1286 1024" version="1.1" xmlns="http://www.w3.org/2000/svg" p-id="5637" width="200" height="200"><path d="M78.110843 1023.915995a83.429125 83.429125 0 0 1-60.950811-22.622406c-42.074792-38.328406 0-88.616428 53.169857-152.304982a678.816247 678.816247 0 0 0 60.374444-79.106372c10.230514-18.011469-6.916404-74.639528-20.749212-120.316614-15.994185-52.881673-34.149745-112.823842-34.149746-170.748727A479.393261 479.393261 0 0 1 554.478178 0H806.926928a478.816894 478.816894 0 1 1 0 957.633788H554.478178a626.510941 626.510941 0 0 1-87.463694-6.62822 635.444629 635.444629 0 0 0-124.639366-5.619579 631.842335 631.842335 0 0 0-118.587513 37.896131c-54.754866 21.325579-104.754704 40.633874-145.676762 40.633875zM554.478178 86.455052a392.794118 392.794118 0 0 0-392.361843 392.361842c0 45.100719 15.561909 96.253291 30.547452 145.676762 21.469671 71.037234 41.9307 138.039899 13.112349 188.327921a712.8219 712.8219 0 0 1-69.019949 91.642355c-6.484129 7.780955-14.409175 17.002827-21.469671 26.080607 25.071965-7.492771 55.475325-19.164203 77.377271-27.665617a666.424356 666.424356 0 0 1 140.057183-43.227526h3.890478a724.205149 724.205149 0 0 1 141.498101 6.051854 549.133669 549.133669 0 0 0 76.51272 5.76367H806.926928A392.361843 392.361843 0 1 0 806.926928 86.455052z" fill="" p-id="5638"></path><path d="M443.095253 483.42783m-52.881673 0a52.881673 52.881673 0 1 0 105.763346 0 52.881673 52.881673 0 1 0-105.763346 0Z" fill="" p-id="5639"></path><path d="M680.846645 483.42783m-52.881673 0a52.881673 52.881673 0 1 0 105.763346 0 52.881673 52.881673 0 1 0-105.763346 0Z" fill="" p-id="5640"></path><path d="M918.598037 483.42783m-52.881674 0a52.881673 52.881673 0 1 0 105.763347 0 52.881673 52.881673 0 1 0-105.763347 0Z" fill="" p-id="5641"></path></svg>