<svg t="1591342798289" class="icon" viewBox="0 0 1024 1024" version="1.1" xmlns="http://www.w3.org/2000/svg" p-id="4227" width="200" height="200"><path d="M207.25270258 640.23505653c28.95815602 7.64495359 97.06774001 7.41328823 196.68379763 10.19327121a336.37794469 336.37794469 0 0 0-5.79163136 76.21786758C397.91320348 809.58235499 458.60949925 882.78857422 512.1241729 882.78857422a69.49957548 69.49957548 0 0 0 69.49957474-69.49957548c0-46.33305007 14.82657571-127.18422289 92.66610088-168.18897234l24.3248508-12.04659271L697.45637319 633.05343369A73.4378846 73.4378846 0 0 0 743.78942327 651.12332313L813.28899874 651.12332313a69.49957548 69.49957548 0 0 0 69.49957548-69.49957549l0-370.66440133a69.49957548 69.49957548 0 0 0-69.49957548-69.49957546l-69.49957545 0a69.49957548 69.49957548 0 0 0-61.85462191 40.0780887l-5.55996598-1.38999149L674.28984852 180.14786806c-13.43658422-3.24331373-38.91976186-9.49827509-93.82442701-23.1665254A689.20412196 689.20412196 0 0 0 442.62459742 141.45977085l-126.72089214 0a87.33779954 87.33779954 0 0 0-82.93616041 44.7113932A164.25066323 164.25066323 0 0 0 222.54260901 210.95934631a77.14452833 77.14452833 0 0 0 1e-8 40.77308411 103.78603211 103.78603211 0 0 0-37.99310111 59.76963499 90.81277865 90.81277865 0 0 0 0 63.24461338 109.11433344 109.11433344 0 0 0-31.04314363 64.17127416 87.10613418 87.10613418 0 0 0 9.03494436 54.90466514 80.61950745 80.61950745 0 0 0-21.08153779 50.27135918l0 4.86496988 0 11.58326269a85.71614267 85.71614267 0 0 0 65.79293173 79.69284669zM720.62289859 210.95934631a23.1665254 23.1665254 0 0 1 23.16652468-23.16652539L813.28899874 187.79282092a23.1665254 23.1665254 0 0 1 23.1665254 23.16652539L836.45552414 581.62374765a23.1665254 23.1665254 0 0 1-23.1665254 23.1665254l-69.49957545 0a23.1665254 23.1665254 0 0 1-23.1665247-23.1665254z m-532.83007767 334.98795321C187.79282092 535.29069758 193.58445226 512.1241729 234.12587099 512.1241729l46.33305079 0a11.5832627 11.5832627 0 0 0 1e-8-23.16652541l-44.94305932 0a35.21311811 35.21311811 0 0 1-37.0664396-42.62640631A50.50302457 50.50302457 0 0 1 248.48911668 396.29154734L303.62544646 396.29154734a11.5832627 11.5832627 0 0 0 1e-8-23.1665254l-46.33305008 0c-39.15142723 0-35.67644886-29.8848175-30.11648288-47.4913762 7.41328822-23.1665254 11.81492809-44.94305857 61.15962651-44.9430593L326.79197189 280.69058644a11.5832627 11.5832627 0 0 0-2e-8-23.16652467l-36.37144424-1e-8a24.5565169 24.5565169 0 0 1-23.16652541-32.66480048 123.24591377 123.24591377 0 0 1 6.48662675-16.67989795 41.69974485 41.69974485 0 0 1 42.1630763-20.15487704L442.62459742 188.02448629a652.36934697 652.36934697 0 0 1 128.34254901 14.82657642c96.14107925 23.1665254 101.23771449 23.1665254 107.2610112 25.71484229 0 0 19.6915463 3.24331373 19.69154631 20.38654243l0 319.69804674a25.01984692 25.01984692 0 0 1-18.30155482 23.16652468l-5.3283006 2.54831762c-105.87101971 43.78473247-138.99915095 138.99915095-138.99915095 218.92366228a23.1665254 23.1665254 0 0 1-23.16652467 23.16652539c-24.5565169 0-67.87791861-49.11303307-67.87791861-110.0409942A277.99830117 277.99830117 0 0 1 465.79112209 604.79027305c-231.6652511 0-230.04359423-3.24331373-250.43013592-8.80327972A35.44478347 35.44478347 0 0 1 187.79282092 560.54220985l0-14.59491033z" fill="" p-id="4228"></path><path d="M778.53921136 280.45892179A34.74978738 34.74978738 0 1 0 743.78942327 245.70913369 34.74978738 34.74978738 0 0 0 778.53921136 280.45892179z m1e-8-46.3330508a11.5832627 11.5832627 0 1 1-11.5832627 11.5832627 11.5832627 11.5832627 0 0 1 11.5832627-11.5832627z" fill="" p-id="4229"></path></svg>