<svg t="1591342831633" class="icon" viewBox="0 0 1024 1024" version="1.1" xmlns="http://www.w3.org/2000/svg" p-id="4363" width="200" height="200"><path d="M848.2 370.5c-32-8.4-107.2-8.2-217.3-11.3 5.3-27.7 7.5-56 6.4-84.2 0.3-91.6-66.8-172.5-125.9-172.5-42.4 0-76.8 34.4-76.8 76.8 0 51.2-16.4 140.5-102.4 185.8l-26.9 13.3h1.3a81.116 81.116 0 0 0-51.2-20h-76.8c-42.4 0-76.8 34.4-76.8 76.8v409.5c0 42.4 34.4 76.8 76.8 76.8h76.8c29.4-0.5 55.9-17.7 68.3-44.3l6.1 1.5h2.3c14.8 3.6 43 10.5 103.6 25.6 50.1 10.8 101.1 16.6 152.3 17.1h140c37.6 2.8 73.3-16.5 91.6-49.4 4.6-8.8 8.4-18 11.5-27.4 4-14.7 4-30.3 0-45 21.3-16.4 36.2-39.8 42-66 8.4-22.5 8.4-47.3 0-69.9 19-19.1 31.1-44.1 34.3-70.9 3.4-20.8-0.1-42.1-10-60.7 14-15.2 22.2-34.9 23.3-55.5v-18.2c-1.6-42.2-31.3-78.1-72.5-87.9zM281.1 844.7c0 14.1-11.5 25.6-25.6 25.6h-76.8c-14.1 0-25.6-11.5-25.6-25.6V435.2c0-14.1 11.5-25.6 25.6-25.6h76.8c14.1 0 25.6 11.5 25.6 25.6v409.5z m588.6-370.1c0 11.8-6.4 37.4-51.2 37.4h-51.2c-7.1 0-12.8 5.7-12.8 12.8 0 7.1 5.7 12.8 12.8 12.8H817c12.3-0.9 24.2 4 32.3 13.3 8.1 9.3 11.3 21.8 8.7 33.8-0.3 30.4-24.9 55-55.3 55.3h-60.9c-7.1 0-12.8 5.7-12.8 12.8 0 7.1 5.7 12.8 12.8 12.8H793c43.3 0 39.4 33 33.3 52.5-8.2 25.6-13 49.6-67.6 49.6h-42.5c-7.1 0-12.8 5.7-12.8 12.8 0 7.1 5.7 12.8 12.8 12.8h40.2c8.8 0 17 4.3 22.1 11.4 5.1 7.2 6.4 16.4 3.5 24.6-1.9 6.3-4.3 12.5-7.2 18.4-9.5 16.2-28 25.1-46.6 22.3h-140c-47.7-0.8-95.2-6.2-141.8-16.4C340.3 828 334.6 828 328 825.2c0 0-21.8-3.6-21.8-22.5V449.5c0.5-12 8.6-22.4 20.2-25.6l5.9-2.8c117-48.4 153.5-153.5 153.5-241.8 0-14.1 11.5-25.6 25.6-25.6 27.1 0 75 54.3 75 121.6 2.2 46-5.9 91.9-23.8 134.4 255.9 0 254.1 3.6 276.6 9.7 18.2 4.1 30.9 20.5 30.5 39.2v16z m0 0" fill="" p-id="4364"></path><path d="M217.2 767.9c-21.2 0-38.4 17.2-38.4 38.4s17.2 38.4 38.4 38.4 38.4-17.2 38.4-38.4c0-10.2-4-19.9-11.2-27.1-7.3-7.3-17.1-11.3-27.2-11.3z m0 51.2c-7.1 0-12.8-5.7-12.8-12.8 0-7.1 5.7-12.8 12.8-12.8 7.1 0 12.8 5.7 12.8 12.8 0 7.1-5.8 12.8-12.8 12.8z m0 0" fill="" p-id="4365"></path></svg>