<svg t="1591631579871" class="icon" viewBox="0 0 1843 1024" version="1.1" xmlns="http://www.w3.org/2000/svg" p-id="2687" width="200" height="200"><path d="M925.0816 87.1424c75.776 0 163.2256 17.6128 260.096 52.224a1527.808 1527.808 0 0 1 269.5168 130.048c79.5648 48.128 154.3168 102.5024 210.5344 153.1904 49.8688 45.056 72.192 75.4688 79.872 89.3952-7.68 14.0288-29.9008 44.3392-79.872 89.3952-56.1152 50.688-130.8672 105.1648-210.432 153.1904-89.088 53.76-182.272 98.7136-269.5168 130.048-96.8704 34.6112-184.4224 52.224-260.096 52.224-79.36 0-169.6768-17.7152-268.288-52.5312a1500.9792 1500.9792 0 0 1-271.0528-129.8432C306.688 706.56 232.448 652.288 176.64 601.4976c-49.2544-44.9536-71.168-75.264-78.6432-89.088 7.68-13.9264 29.9008-44.4416 80.0768-89.6 56.32-50.7904 131.3792-105.1648 211.1488-153.1904C582.0416 153.6 777.3184 87.04 925.0816 87.04z m0-87.1424C527.36 0 0 392.192 0 512.2048 0 632.1152 518.7584 1024 925.0816 1024 1315.9424 1024 1843.2 632.1152 1843.2 512c0-119.808-527.2576-512-918.1184-512z" fill="" p-id="2688"></path><path d="M921.6 293.9904c58.2656 0 112.9472 22.6304 154.112 63.8976 41.2672 41.1648 63.8976 95.8464 63.8976 154.112 0 58.2656-22.6304 112.9472-63.8976 154.112A216.576 216.576 0 0 1 921.6 730.112a216.576 216.576 0 0 1-154.112-63.8976A216.576 216.576 0 0 1 703.488 512c0-58.2656 22.6304-112.9472 63.8976-154.112A216.576 216.576 0 0 1 921.6 293.888zM921.6 204.8a307.2 307.2 0 1 0 0 614.4 307.2 307.2 0 0 0 0-614.4z" fill="" p-id="2689"></path></svg>