<svg t="1591342974983" class="icon" viewBox="0 0 1024 1024" version="1.1" xmlns="http://www.w3.org/2000/svg" p-id="5894" width="200" height="200"><path d="M783.356 402.962c-8.827-5.577-20.494-3.073-26.256 5.633-50.184 79.4-144.055 128.697-245.004 128.697-100.947 0-194.843-49.32-245.019-128.696a19.195 19.195 0 0 0-33.497 1.095 19.17 19.17 0 0 0-2.1 7.733v2.241a19.163 19.163 0 0 0 3.148 9.428c57.146 90.427 163.47 146.575 277.468 146.575 113.978 0 220.3-56.148 277.454-146.575 5.385-8.945 2.633-20.554-6.194-26.13z" fill="" p-id="5895"></path><path d="M413.33 664.194a21.862 21.862 0 0 1-3.328-0.275c-10.452-1.823-17.446-11.77-15.624-22.224l14.91-85.473c1.832-10.457 11.793-17.449 22.248-15.618 10.454 1.831 17.446 11.792 15.616 22.247l-14.91 85.473c-1.616 9.178-9.577 15.879-18.897 15.899m195.398 0.001a19.21 19.21 0 0 1-18.769-15.325l-17.696-85.505c-2.1-10.369 4.582-20.482 14.942-22.619 10.363-2.136 20.498 4.511 22.671 14.866l17.648 85.475a19.174 19.174 0 0 1-14.91 22.669 18.71 18.71 0 0 1-3.924 0.4m-325.666-63.1a18.83 18.83 0 0 1-6.576-1.178 19.154 19.154 0 0 1-11.466-24.593l31.225-85.537c3.632-9.956 14.646-15.082 24.601-11.45 9.956 3.634 15.082 14.647 11.45 24.602l-31.224 85.536a19.173 19.173 0 0 1-18.05 12.627m455.934 14.25a19.186 19.186 0 0 1-17.851-12.123l-33.926-85.536c-3.562-9.772 1.307-20.602 10.977-24.432 9.67-3.825 20.632 0.744 24.721 10.308l33.926 85.535a19.215 19.215 0 0 1-1.971 17.864 19.209 19.209 0 0 1-15.882 8.41" fill="" p-id="5896"></path></svg>